<svg width="18" height="30" viewBox="0 0 18 30" fill="none" xmlns="http://www.w3.org/2000/svg">
<path d="M6.70812 30C6.40279 30 6.15979 29.896 5.97912 29.688C5.79846 29.4793 5.73612 29.2223 5.79212 28.917L7.33312 18.292H1.33312C0.999791 18.292 0.77079 18.16 0.646124 17.896C0.52079 17.632 0.541457 17.3473 0.708124 17.042L10.4581 0.5C10.5141 0.361333 10.6391 0.243333 10.8331 0.146C11.0278 0.0486666 11.2085 0 11.3751 0C11.6805 0 11.9235 0.104 12.1041 0.312C12.2848 0.520666 12.3475 0.777667 12.2921 1.083L10.7501 11.708H16.7081C17.0415 11.708 17.2778 11.833 17.4171 12.083C17.5558 12.333 17.5418 12.611 17.3751 12.917L7.62512 29.5C7.56979 29.6387 7.44479 29.7567 7.25012 29.854C7.05546 29.9513 6.87479 30 6.70812 30Z" fill="#110B05"/>
</svg>
