<svg width="18" height="21" viewBox="0 0 18 21" fill="none" xmlns="http://www.w3.org/2000/svg">
<path d="M9 12.5C8.7168 12.5 8.4792 12.4042 8.2872 12.2126C8.0956 12.021 7.9998 11.7836 7.9998 11.5004C7.9998 11.2168 8.0956 10.9792 8.2872 10.7876C8.4792 10.596 8.7168 10.5002 9 10.5002C9.2832 10.5002 9.5208 10.596 9.7128 10.7876C9.9044 10.9792 10.0002 11.2168 10.0002 11.5004C10.0002 11.7836 9.9044 12.021 9.7128 12.2126C9.5208 12.4042 9.2832 12.5 9 12.5ZM4.9998 12.5C4.7166 12.5 4.4792 12.4042 4.2876 12.2126C4.096 12.021 4.0002 11.7836 4.0002 11.5004C4.0002 11.2168 4.096 10.9792 4.2876 10.7876C4.4792 10.596 4.7166 10.5002 4.9998 10.5002C5.2834 10.5002 5.521 10.596 5.7126 10.7876C5.9042 10.9792 6 11.2168 6 11.5004C6 11.7836 5.9042 12.021 5.7126 12.2126C5.521 12.4042 5.2834 12.5 4.9998 12.5ZM13.0002 12.5C12.7166 12.5 12.479 12.4042 12.2874 12.2126C12.0958 12.021 12 11.7836 12 11.5004C12 11.2168 12.0958 10.9792 12.2874 10.7876C12.479 10.596 12.7166 10.5002 13.0002 10.5002C13.2834 10.5002 13.5208 10.596 13.7124 10.7876C13.904 10.9792 13.9998 11.2168 13.9998 11.5004C13.9998 11.7836 13.904 12.021 13.7124 12.2126C13.5208 12.4042 13.2834 12.5 13.0002 12.5ZM9 16.5002C8.7168 16.5002 8.4792 16.4044 8.2872 16.2128C8.0956 16.0212 7.9998 15.7836 7.9998 15.5C7.9998 15.2168 8.0956 14.9794 8.2872 14.7878C8.4792 14.5962 8.7168 14.5004 9 14.5004C9.2832 14.5004 9.5208 14.5962 9.7128 14.7878C9.9044 14.9794 10.0002 15.2168 10.0002 15.5C10.0002 15.7836 9.9044 16.0212 9.7128 16.2128C9.5208 16.4044 9.2832 16.5002 9 16.5002ZM4.9998 16.5002C4.7166 16.5002 4.4792 16.4044 4.2876 16.2128C4.096 16.0212 4.0002 15.7836 4.0002 15.5C4.0002 15.2168 4.096 14.9794 4.2876 14.7878C4.4792 14.5962 4.7166 14.5004 4.9998 14.5004C5.2834 14.5004 5.521 14.5962 5.7126 14.7878C5.9042 14.9794 6 15.2168 6 15.5C6 15.7836 5.9042 16.0212 5.7126 16.2128C5.521 16.4044 5.2834 16.5002 4.9998 16.5002ZM13.0002 16.5002C12.7166 16.5002 12.479 16.4044 12.2874 16.2128C12.0958 16.0212 12 15.7836 12 15.5C12 15.2168 12.0958 14.9794 12.2874 14.7878C12.479 14.5962 12.7166 14.5004 13.0002 14.5004C13.2834 14.5004 13.5208 14.5962 13.7124 14.7878C13.904 14.9794 13.9998 15.2168 13.9998 15.5C13.9998 15.7836 13.904 16.0212 13.7124 16.2128C13.5208 16.4044 13.2834 16.5002 13.0002 16.5002ZM1.6752 20.5004C1.2252 20.5004 0.8334 20.3336 0.4998 20C0.1666 19.6668 0 19.2752 0 18.8252V3.8252C0 3.3752 0.1666 2.9878 0.4998 2.663C0.8334 2.3378 1.2252 2.1752 1.6752 2.1752H3.075V1.3754C3.075 1.1254 3.1584 0.917 3.3252 0.7502C3.4916 0.5834 3.6998 0.5 3.9498 0.5C4.1998 0.5 4.4082 0.5834 4.575 0.7502C4.7418 0.917 4.8252 1.1254 4.8252 1.3754V2.1752H13.1748V1.3754C13.1748 1.1254 13.2582 0.917 13.425 0.7502C13.5918 0.5834 13.7918 0.5 14.025 0.5C14.275 0.5 14.4876 0.5834 14.6628 0.7502C14.8376 0.917 14.925 1.1254 14.925 1.3754V2.1752H16.3248C16.7748 2.1752 17.1666 2.3378 17.5002 2.663C17.8334 2.9878 18 3.3752 18 3.8252V18.8252C18 19.2752 17.8334 19.6668 17.5002 20C17.1666 20.3336 16.7748 20.5004 16.3248 20.5004H1.6752ZM1.6752 18.8252H16.3248V8.3252H1.6752V18.8252ZM1.6752 6.6752H16.3248V3.8252H1.6752V6.6752Z" fill="#83817D"/>
</svg>
