<svg width="30" height="34" viewBox="0 0 30 34" fill="none" xmlns="http://www.w3.org/2000/svg">
<path d="M8.042 19.792C7.65267 19.792 7.326 19.653 7.062 19.375C6.79867 19.097 6.667 18.7637 6.667 18.375C6.667 17.9863 6.79867 17.66 7.062 17.396C7.326 17.132 7.65267 17 8.042 17H21.958C22.3473 17 22.674 17.132 22.938 17.396C23.2013 17.66 23.333 17.9863 23.333 18.375C23.333 18.7917 23.2013 19.132 22.938 19.396C22.674 19.66 22.3473 19.792 21.958 19.792H8.042ZM8.042 27C7.65267 27 7.326 26.868 7.062 26.604C6.79867 26.34 6.667 26.0137 6.667 25.625C6.667 25.2083 6.79867 24.868 7.062 24.604C7.326 24.34 7.65267 24.208 8.042 24.208H16.917C17.3057 24.208 17.632 24.347 17.896 24.625C18.16 24.903 18.292 25.2363 18.292 25.625C18.292 26.0137 18.16 26.34 17.896 26.604C17.632 26.868 17.3057 27 16.917 27H8.042ZM2.792 33.667C2.042 33.667 1.389 33.389 0.833 32.833C0.277667 32.2777 0 31.625 0 30.875V5.87501C0 5.12501 0.277667 4.47934 0.833 3.93801C1.389 3.39601 2.042 3.12501 2.792 3.12501H5.125V1.79201C5.125 1.37534 5.27067 1.02801 5.562 0.750008C5.854 0.472008 6.20833 0.333008 6.625 0.333008C7.04167 0.333008 7.382 0.472008 7.646 0.750008C7.91 1.02801 8.042 1.37534 8.042 1.79201V3.12501H21.958V1.79201C21.958 1.37534 22.097 1.02801 22.375 0.750008C22.653 0.472008 23.0003 0.333008 23.417 0.333008C23.8337 0.333008 24.1807 0.472008 24.458 0.750008C24.736 1.02801 24.875 1.37534 24.875 1.79201V3.12501H27.208C27.958 3.12501 28.611 3.39601 29.167 3.93801C29.7223 4.47934 30 5.12501 30 5.87501V30.875C30 31.625 29.7223 32.2777 29.167 32.833C28.611 33.389 27.958 33.667 27.208 33.667H2.792ZM2.792 30.875H27.208V13.375H2.792V30.875ZM2.792 10.625H27.208V5.87501H2.792V10.625Z" fill="#83817D"/>
</svg>
