<svg width="147" height="22" viewBox="0 0 147 22" fill="none" xmlns="http://www.w3.org/2000/svg">
<path d="M5.32998 11.5128L5.39387 1.71875C0.262639 4.65271 -1.51733 11.1892 1.41662 16.3204C2.82611 18.786 5.15541 20.5915 7.89774 21.3367L8.58332 12.9862L5.32998 11.5128Z" fill="#F99E24"/>
<path d="M16.3841 1.92285L12.0492 8.54447L17.619 9.32372L8.12305 21.3917C13.8547 22.831 19.6715 19.352 21.1108 13.6203C22.2435 9.10656 20.3315 4.37988 16.3841 1.92285Z" fill="#F99E24"/>
<path d="M31.0176 4.33203H33.3085V16.4937H31.0176V4.33203Z" fill="black"/>
<path d="M35.7744 7.82784H37.8652V8.9137H38.0015C38.274 8.49639 38.6402 8.16425 39.0959 7.92152C39.5558 7.6788 40.0668 7.55957 40.6331 7.55957C41.2463 7.55957 41.7786 7.70435 42.23 7.99392C42.6813 8.28348 43.005 8.64543 43.1966 9.08829C43.4776 8.63692 43.8651 8.26644 44.3591 7.9854C44.8531 7.70435 45.4322 7.55957 46.1007 7.55957C47.0844 7.55957 47.8339 7.86191 48.3534 8.46658C48.8686 9.07126 49.1284 9.88885 49.1284 10.9194V16.4892H46.9183V11.3281C46.9183 10.7831 46.7906 10.3658 46.5351 10.072C46.2796 9.77813 45.9262 9.6291 45.4748 9.6291C44.8956 9.6291 44.4358 9.85904 44.0908 10.3147C43.7459 10.7746 43.5713 11.375 43.5713 12.1244V16.4892H41.3442V11.3281C41.3442 10.7831 41.2122 10.3658 40.944 10.072C40.6757 9.77813 40.301 9.6291 39.8155 9.6291C39.2705 9.6291 38.8319 9.85904 38.4997 10.3147C38.1676 10.7746 37.9972 11.375 37.9972 12.1244V16.4892H35.7744V7.82784Z" fill="black"/>
<path d="M51.1807 7.82819H53.2715V8.87999H53.4077C53.6462 8.50526 53.9911 8.19441 54.4425 7.93465C54.8939 7.67915 55.4177 7.55566 56.0053 7.55566C56.7888 7.55566 57.4957 7.75155 58.1387 8.14331C58.7774 8.53507 59.2799 9.08013 59.6419 9.78274C60.0038 10.4854 60.1869 11.2774 60.1869 12.1589C60.1869 13.0531 60.0038 13.8494 59.6419 14.5435C59.2799 15.2419 58.7774 15.7827 58.1387 16.1744C57.5 16.5662 56.7888 16.7621 56.0053 16.7621C55.4177 16.7621 54.8939 16.6386 54.434 16.3873C53.9741 16.1361 53.6334 15.8252 53.4077 15.4548H53.2715L53.4077 16.6769V20.1602H51.1807V7.82819ZM56.7846 14.3859C57.1465 14.1688 57.4361 13.8707 57.649 13.4874C57.8619 13.1042 57.9726 12.6613 57.9726 12.1631C57.9726 11.6649 57.8662 11.222 57.649 10.8388C57.4318 10.4556 57.1465 10.1575 56.7846 9.94882C56.4226 9.74016 56.0308 9.63371 55.6135 9.63371C55.2047 9.63371 54.8215 9.74016 54.4595 9.94882C54.0976 10.1575 53.808 10.4556 53.5951 10.8388C53.3779 11.222 53.2715 11.6649 53.2715 12.1631C53.2715 12.6613 53.3779 13.1042 53.5951 13.4874C53.8123 13.8707 54.0976 14.173 54.4595 14.3859C54.8215 14.6031 55.209 14.7096 55.6135 14.7096C56.0308 14.7053 56.4226 14.5989 56.7846 14.3859Z" fill="black"/>
<path d="M62.5585 15.7954C62.0134 15.1524 61.7451 14.2496 61.7451 13.0956V7.82812H63.9722V12.8231C63.9722 13.4107 64.1127 13.8749 64.398 14.207C64.6791 14.5392 65.0538 14.7095 65.518 14.7095C66.1524 14.7095 66.6549 14.4753 67.0296 14.0111C67.4044 13.547 67.5917 12.9594 67.5917 12.244V7.82812H69.8146V16.4895H67.7237V15.4036H67.5875C67.3277 15.8209 66.9615 16.1531 66.4931 16.3958C66.0247 16.6385 65.5052 16.762 64.9388 16.762C63.8955 16.762 63.1035 16.4384 62.5585 15.7954Z" fill="black"/>
<path d="M71.9863 4.33203H74.2134V16.4937H71.9863V4.33203Z" fill="black"/>
<path d="M77.0534 16.1191C76.4019 15.689 75.9463 15.1269 75.6865 14.437L77.6751 13.5726C77.8582 13.9814 78.1137 14.288 78.4501 14.4967C78.7823 14.7053 79.1698 14.8118 79.6127 14.8118C80.0215 14.8118 80.3621 14.7479 80.6304 14.6159C80.9029 14.4839 81.0392 14.271 81.0392 13.9772C81.0392 13.6961 80.9157 13.4832 80.6645 13.3384C80.4132 13.1979 80.0427 13.0701 79.5445 12.9552L78.5268 12.7337C77.8242 12.5634 77.2408 12.2568 76.7766 11.8097C76.3125 11.3626 76.0825 10.8047 76.0825 10.1362C76.0825 9.63796 76.2316 9.19084 76.5339 8.79482C76.832 8.3988 77.2408 8.09221 77.756 7.87929C78.2713 7.66212 78.8419 7.55566 79.4636 7.55566C81.2521 7.55566 82.4487 8.18163 83.0491 9.44208L81.1456 10.2724C80.805 9.66351 80.2642 9.35692 79.5147 9.35692C79.1315 9.35692 78.8249 9.42931 78.5992 9.56983C78.3735 9.71035 78.2585 9.8892 78.2585 10.1064C78.2585 10.5152 78.6418 10.8218 79.4125 11.0219L80.6857 11.3285C81.5459 11.5414 82.1932 11.8693 82.6318 12.3122C83.0661 12.755 83.2833 13.2958 83.2833 13.9431C83.2833 14.5009 83.1215 14.9864 82.7979 15.4122C82.4742 15.838 82.0314 16.1702 81.4735 16.4044C80.9114 16.6428 80.294 16.7621 79.6127 16.7621C78.5566 16.7621 77.7049 16.5449 77.0534 16.1191Z" fill="black"/>
<path d="M85.0469 6.45207C84.7659 6.17102 84.6211 5.83036 84.6211 5.43434C84.6211 5.03832 84.7616 4.70191 85.0469 4.42512C85.328 4.14834 85.6686 4.00781 86.0647 4.00781C86.4607 4.00781 86.7971 4.14408 87.0739 4.42512C87.3506 4.70191 87.4912 5.03832 87.4912 5.43434C87.4912 5.83036 87.3506 6.17102 87.0739 6.45207C86.7971 6.73311 86.4607 6.87789 86.0647 6.87789C85.6686 6.87789 85.328 6.73737 85.0469 6.45207ZM84.9447 7.82749H87.1675V16.4888H84.9447V7.82749Z" fill="black"/>
<path d="M88.5254 7.82812H91.0548L93.2436 13.4661H93.3798L95.6027 7.82812H98.098L94.3933 16.4895H92.1833L88.5254 7.82812Z" fill="black"/>
<path d="M100.789 16.1704C100.099 15.7744 99.5585 15.2251 99.1667 14.531C98.775 13.8369 98.5791 13.0534 98.5791 12.1804C98.5791 11.3543 98.7707 10.5878 99.1582 9.88096C99.5415 9.17408 100.074 8.61199 100.755 8.19042C101.432 7.77311 102.194 7.56445 103.029 7.56445C103.923 7.56445 104.694 7.75608 105.337 8.13932C105.984 8.52257 106.474 9.05059 106.806 9.71914C107.138 10.3877 107.309 11.1286 107.309 11.942C107.309 12.2017 107.292 12.453 107.257 12.6914H100.755C100.87 13.3813 101.143 13.905 101.577 14.2627C102.011 14.6204 102.535 14.7993 103.148 14.7993C103.659 14.7993 104.098 14.6886 104.464 14.4671C104.83 14.2457 105.124 13.9476 105.337 13.5771L107.138 14.4586C106.257 16.0001 104.915 16.7666 103.114 16.7666C102.254 16.7623 101.479 16.5622 100.789 16.1704ZM105.171 11.1073C105.15 10.8348 105.052 10.5665 104.873 10.3025C104.698 10.0343 104.451 9.81708 104.14 9.63824C103.83 9.46365 103.463 9.37422 103.046 9.37422C102.514 9.37422 102.058 9.53178 101.679 9.84263C101.3 10.1535 101.023 10.5751 100.857 11.1073H105.171Z" fill="black"/>
<path d="M111.524 4.33203H114.071L115.736 11.1581L115.94 12.4313H116.077L116.349 11.1581L118.487 4.33203H120.744L122.834 11.1581L123.107 12.3972H123.243L123.448 11.1581L125.096 4.33203H127.642L124.499 16.4937H122.038L119.964 9.15666L119.692 7.84937H119.556L119.283 9.15666L117.107 16.4937H114.748L111.524 4.33203Z" fill="black"/>
<path d="M129.763 16.1704C129.073 15.7744 128.532 15.2251 128.14 14.531C127.749 13.8369 127.553 13.0534 127.553 12.1804C127.553 11.3543 127.744 10.5878 128.132 9.88096C128.515 9.17408 129.047 8.61199 129.729 8.19042C130.406 7.77311 131.168 7.56445 132.003 7.56445C132.897 7.56445 133.668 7.75608 134.311 8.13932C134.958 8.52257 135.448 9.05059 135.78 9.71914C136.112 10.3877 136.282 11.1286 136.282 11.942C136.282 12.2017 136.265 12.453 136.231 12.6914H129.724C129.839 13.3813 130.112 13.905 130.546 14.2627C130.981 14.6204 131.504 14.7993 132.118 14.7993C132.629 14.7993 133.067 14.6886 133.433 14.4671C133.8 14.2457 134.093 13.9476 134.306 13.5771L136.108 14.4586C135.226 16.0001 133.885 16.7666 132.084 16.7666C131.232 16.7623 130.453 16.5622 129.763 16.1704ZM134.145 11.1073C134.123 10.8348 134.025 10.5665 133.846 10.3025C133.672 10.0343 133.425 9.81708 133.114 9.63824C132.803 9.46365 132.437 9.37422 132.02 9.37422C131.487 9.37422 131.032 9.53178 130.653 9.84263C130.274 10.1535 129.997 10.5751 129.831 11.1073H134.145Z" fill="black"/>
<path d="M141.251 16.3872C140.791 16.136 140.451 15.8251 140.225 15.4547H140.089V16.4894H137.998V4.33203H140.225V7.66201L140.089 8.88413H140.225C140.464 8.5094 140.809 8.19855 141.26 7.93879C141.711 7.6833 142.235 7.55981 142.823 7.55981C143.602 7.55981 144.313 7.75569 144.952 8.14745C145.591 8.53921 146.093 9.08427 146.455 9.78689C146.817 10.4895 147 11.2815 147 12.163C147 13.0572 146.821 13.8535 146.455 14.5476C146.093 15.246 145.591 15.7868 144.952 16.1786C144.313 16.5703 143.602 16.7662 142.823 16.7662C142.235 16.762 141.711 16.6385 141.251 16.3872ZM143.606 14.3858C143.968 14.1687 144.258 13.8706 144.471 13.4873C144.688 13.1041 144.794 12.6612 144.794 12.163C144.794 11.6648 144.688 11.2219 144.471 10.8387C144.253 10.4554 143.968 10.1574 143.606 9.9487C143.244 9.74005 142.852 9.63359 142.435 9.63359C142.026 9.63359 141.643 9.74005 141.281 9.9487C140.919 10.1574 140.63 10.4554 140.417 10.8387C140.2 11.2219 140.093 11.6648 140.093 12.163C140.093 12.6612 140.2 13.1041 140.417 13.4873C140.634 13.8706 140.919 14.1729 141.281 14.3858C141.643 14.603 142.031 14.7095 142.435 14.7095C142.852 14.7052 143.244 14.5987 143.606 14.3858Z" fill="black"/>
</svg>
