<svg width="19" height="11" viewBox="0 0 19 11" fill="none" xmlns="http://www.w3.org/2000/svg">
<path d="M9.26367 10.4031C9.10439 10.4031 8.9451 10.3767 8.78581 10.3238C8.62653 10.2709 8.48062 10.1779 8.34809 10.0447L0.662206 2.35978C0.396517 2.09409 0.263672 1.77551 0.263672 1.40406C0.263672 1.03196 0.396517 0.713392 0.662206 0.448339C0.927896 0.182649 1.23978 0.0498047 1.59785 0.0498047C1.95657 0.0498047 2.26845 0.182649 2.5335 0.448339L9.26367 7.17755L15.9938 0.448339C16.2589 0.182649 16.5775 0.0498047 16.9496 0.0498047C17.321 0.0498047 17.6396 0.182649 17.9053 0.448339C18.1442 0.713392 18.2637 1.03196 18.2637 1.40406C18.2637 1.77551 18.1442 2.08071 17.9053 2.31964L10.1793 10.0447C10.0467 10.1779 9.90751 10.2709 9.7616 10.3238C9.61569 10.3767 9.44972 10.4031 9.26367 10.4031Z" fill="#83817D"/>
</svg>
