<svg width="12" height="22" viewBox="0 0 12 22" fill="none" xmlns="http://www.w3.org/2000/svg">
<path d="M2.65771 1.07518L11.538 9.91039C11.691 10.0935 11.798 10.2689 11.8588 10.4366C11.9196 10.6044 11.95 10.7952 11.95 11.009C11.95 11.1921 11.9196 11.3752 11.8588 11.5583C11.798 11.7414 11.691 11.9092 11.538 12.0615L2.65771 20.9418C2.35229 21.2472 1.98608 21.3999 1.55908 21.3999C1.13207 21.3999 0.765862 21.2472 0.460442 20.9418C0.185783 20.6371 0.0484544 20.2709 0.0484544 19.8431C0.0484545 19.4161 0.201164 19.0499 0.506584 18.7445L8.24206 11.009L0.460443 3.2263C0.185785 2.92162 0.0484559 2.5631 0.048456 2.15074C0.048456 1.73912 0.185785 1.3806 0.460443 1.07518C0.765863 0.769759 1.13976 0.617049 1.58215 0.617049C2.02453 0.617049 2.38305 0.769759 2.65771 1.07518Z" fill="#F7F7F7"/>
</svg>
