<svg width="28" height="34" viewBox="0 0 28 34" fill="none" xmlns="http://www.w3.org/2000/svg">
<path d="M2.04199 28.667C1.65266 28.667 1.32599 28.535 1.06199 28.271C0.798659 28.007 0.666992 27.6807 0.666992 27.292C0.666992 26.8753 0.798659 26.535 1.06199 26.271C1.32599 26.007 1.65266 25.875 2.04199 25.875H4.12499V13.5C4.12499 11.222 4.81266 9.16634 6.18799 7.33301C7.56266 5.49967 9.37499 4.33301 11.625 3.83301V2.62501C11.625 1.98634 11.854 1.44467 12.312 1.00001C12.7707 0.555341 13.3333 0.333008 14 0.333008C14.6667 0.333008 15.2293 0.555341 15.688 1.00001C16.146 1.44467 16.375 1.98634 16.375 2.62501V3.83301C18.625 4.33301 20.4443 5.49967 21.833 7.33301C23.2223 9.16634 23.917 11.222 23.917 13.5V25.875H25.958C26.3473 25.875 26.674 26.014 26.938 26.292C27.2013 26.5693 27.333 26.9027 27.333 27.292C27.333 27.6807 27.2013 28.007 26.938 28.271C26.674 28.535 26.3473 28.667 25.958 28.667H2.04199ZM14 33.667C13.1113 33.667 12.3337 33.3407 11.667 32.688C11.0003 32.0347 10.667 31.2497 10.667 30.333H17.333C17.333 31.2497 17.0067 32.0347 16.354 32.688C15.7013 33.3407 14.9167 33.667 14 33.667ZM6.87499 25.875H21.125V13.5C21.125 11.5 20.4443 9.80567 19.083 8.41701C17.7223 7.02767 16.042 6.33301 14.042 6.33301C12.042 6.33301 10.3473 7.02767 8.95799 8.41701C7.56933 9.80567 6.87499 11.5 6.87499 13.5V25.875Z" fill="#83817D"/>
</svg>
