<svg width="28" height="27" viewBox="0 0 28 27" fill="none" xmlns="http://www.w3.org/2000/svg">
<path d="M14.001 12.958C12.1676 12.958 10.647 12.354 9.43897 11.146C8.2303 9.93734 7.62597 8.41634 7.62597 6.58301C7.62597 4.74967 8.2303 3.22901 9.43897 2.02101C10.647 0.812341 12.1676 0.208008 14.001 0.208008C15.8343 0.208008 17.355 0.812341 18.563 2.02101C19.7716 3.22901 20.376 4.74967 20.376 6.58301C20.376 8.41634 19.7716 9.93734 18.563 11.146C17.355 12.354 15.8343 12.958 14.001 12.958ZM24.543 26.333H3.45897C2.68164 26.333 2.02197 26.0623 1.47997 25.521C0.938636 24.979 0.667969 24.3193 0.667969 23.542V22.167C0.667969 21.139 0.924635 20.243 1.43797 19.479C1.95197 18.715 2.62564 18.1387 3.45897 17.75C5.26497 16.9167 7.03597 16.2847 8.77197 15.854C10.508 15.4233 12.251 15.208 14.001 15.208C15.751 15.208 17.487 15.4233 19.209 15.854C20.9316 16.2847 22.7096 16.9167 24.543 17.75C25.3763 18.1667 26.0496 18.75 26.563 19.5C27.077 20.25 27.334 21.139 27.334 22.167V23.542C27.334 24.3193 27.0633 24.979 26.522 25.521C25.98 26.0623 25.3203 26.333 24.543 26.333ZM3.45897 23.542H24.543V22.167C24.543 21.7777 24.4316 21.4027 24.209 21.042C23.987 20.6807 23.7093 20.4167 23.376 20.25C21.6813 19.4167 20.091 18.8333 18.605 18.5C17.119 18.1667 15.5843 18 14.001 18C12.4176 18 10.876 18.1667 9.37597 18.5C7.87597 18.8333 6.29264 19.4167 4.62597 20.25C4.26464 20.4167 3.97997 20.6807 3.77197 21.042C3.5633 21.4027 3.45897 21.7777 3.45897 22.167V23.542ZM14.001 10.208C15.029 10.208 15.89 9.86101 16.584 9.16701C17.2786 8.47234 17.626 7.61101 17.626 6.58301C17.626 5.55567 17.2786 4.69467 16.584 4.00001C15.89 3.30534 15.029 2.95801 14.001 2.95801C12.973 2.95801 12.112 3.30534 11.418 4.00001C10.7233 4.69467 10.376 5.55567 10.376 6.58301C10.376 7.61101 10.7233 8.47234 11.418 9.16701C12.112 9.86101 12.973 10.208 14.001 10.208Z" fill="#83817D"/>
</svg>
