<svg width="14" height="23" viewBox="0 0 14 23" fill="none" xmlns="http://www.w3.org/2000/svg">
<path d="M1.6752 22.4996C1.2252 22.4996 0.8336 22.333 0.5004 21.9998C0.1668 21.6666 0 21.275 0 20.825V2.1746C0 1.7246 0.1668 1.333 0.5004 0.9998C0.8336 0.6666 1.2252 0.5 1.6752 0.5H12.3252C12.7752 0.5 13.1668 0.6666 13.5 0.9998C13.8336 1.333 14.0004 1.7246 14.0004 2.1746V20.825C14.0004 21.275 13.8336 21.6666 13.5 21.9998C13.1668 22.333 12.7752 22.4996 12.3252 22.4996H1.6752ZM1.6752 20V20.825H12.3252V20H1.6752ZM1.6752 18.3248H12.3252V4.6748H1.6752V18.3248ZM1.6752 2.9996H12.3252V2.1746H1.6752V2.9996Z" fill="#83817D"/>
</svg>
