<svg width="30" height="30" viewBox="0 0 30 30" fill="none" xmlns="http://www.w3.org/2000/svg">
<path d="M27.208 27.208V21.208H2.792V27.208H27.208ZM27.208 18.417V11.583H2.792V18.417H27.208ZM27.208 8.792V2.792H2.792V8.792H27.208ZM2.792 30C2.042 30 1.389 29.7223 0.833 29.167C0.277667 28.611 0 27.958 0 27.208V2.792C0 2.042 0.277667 1.389 0.833 0.833C1.389 0.277667 2.042 0 2.792 0H27.208C27.958 0 28.611 0.277667 29.167 0.833C29.7223 1.389 30 2.042 30 2.792V27.208C30 27.958 29.7223 28.611 29.167 29.167C28.611 29.7223 27.958 30 27.208 30H2.792Z" fill="#83817D"/>
</svg>
