<svg width="16" height="17" viewBox="0 0 16 17" fill="none" xmlns="http://www.w3.org/2000/svg">
<path d="M8.00078 12.6246C7.76758 12.6246 7.57178 12.5454 7.41338 12.387C7.25498 12.2286 7.17578 12.0244 7.17578 11.7744V3.72481L4.90058 5.99941C4.73418 6.16621 4.53838 6.24541 4.31318 6.23701C4.08838 6.22861 3.89258 6.14121 3.72578 5.97481C3.55898 5.80801 3.47558 5.60801 3.47558 5.37481C3.47558 5.14121 3.55898 4.94121 3.72578 4.77481L7.42598 1.07461C7.50918 0.991409 7.60078 0.933009 7.70078 0.899409C7.80078 0.866209 7.90078 0.849609 8.00078 0.849609C8.11758 0.849609 8.22178 0.866209 8.31338 0.899409C8.40498 0.933009 8.49238 0.991409 8.57558 1.07461L12.301 4.79941C12.4674 4.96621 12.5506 5.16201 12.5506 5.38681C12.5506 5.61201 12.4674 5.80801 12.301 5.97481C12.1342 6.14121 11.9342 6.22441 11.701 6.22441C11.4674 6.22441 11.2674 6.14121 11.101 5.97481L8.82578 3.72481V11.7744C8.82578 12.0244 8.74658 12.2286 8.58818 12.387C8.42978 12.5454 8.23398 12.6246 8.00078 12.6246ZM1.67558 16.4994C1.22558 16.4994 0.833977 16.3328 0.500777 15.9996C0.167577 15.6664 0.000976562 15.2748 0.000976562 14.8248V12.2748C0.000976562 12.0412 0.0799766 11.8452 0.237977 11.6868C0.396377 11.5288 0.592377 11.4498 0.825977 11.4498C1.07598 11.4498 1.27998 11.5288 1.43798 11.6868C1.59638 11.8452 1.67558 12.0412 1.67558 12.2748V14.8248H14.326V12.2748C14.326 12.0412 14.4092 11.8452 14.5756 11.6868C14.7424 11.5288 14.9424 11.4498 15.1756 11.4498C15.4092 11.4498 15.6052 11.5288 15.7636 11.6868C15.9216 11.8452 16.0006 12.0412 16.0006 12.2748V14.8248C16.0006 15.2748 15.834 15.6664 15.5008 15.9996C15.1676 16.3328 14.776 16.4994 14.326 16.4994H1.67558Z" fill="#83817D"/>
</svg>
