<svg width="22" height="16" viewBox="0 0 22 16" fill="none" xmlns="http://www.w3.org/2000/svg">
<path d="M11 12.3248C12.2 12.3248 13.2208 11.904 14.0624 11.0624C14.904 10.2208 15.3248 9.2 15.3248 8C15.3248 6.8 14.904 5.7792 14.0624 4.9376C13.2208 4.0956 12.2 3.6746 11 3.6746C9.8 3.6746 8.7792 4.0956 7.9376 4.9376C7.096 5.7792 6.6752 6.8 6.6752 8C6.6752 9.2 7.096 10.2208 7.9376 11.0624C8.7792 11.904 9.8 12.3248 11 12.3248ZM11 10.775C10.2332 10.775 9.579 10.5042 9.0374 9.9626C8.4958 9.4206 8.225 8.7664 8.225 8C8.225 7.2332 8.4958 6.579 9.0374 6.0374C9.579 5.4958 10.2332 5.225 11 5.225C11.7668 5.225 12.421 5.4958 12.9626 6.0374C13.5042 6.579 13.775 7.2332 13.775 8C13.775 8.7664 13.5042 9.4206 12.9626 9.9626C12.421 10.5042 11.7668 10.775 11 10.775ZM11 15.5C8.7 15.5 6.6 14.879 4.7 13.637C2.8 12.3954 1.3416 10.7414 0.324805 8.675C0.274805 8.5914 0.237405 8.4914 0.212605 8.375C0.187405 8.2582 0.174805 8.1332 0.174805 8C0.174805 7.8664 0.187405 7.7414 0.212605 7.625C0.237405 7.5082 0.274805 7.4082 0.324805 7.325C1.3416 5.2582 2.8 3.604 4.7 2.3624C6.6 1.1208 8.7 0.5 11 0.5C13.3 0.5 15.4 1.1208 17.3 2.3624C19.2 3.604 20.6584 5.2582 21.6752 7.325C21.7252 7.4082 21.7626 7.5082 21.7874 7.625C21.8126 7.7414 21.8252 7.8664 21.8252 8C21.8252 8.1332 21.8126 8.2582 21.7874 8.375C21.7626 8.4914 21.7252 8.5914 21.6752 8.675C20.6584 10.7414 19.2 12.3954 17.3 13.637C15.4 14.879 13.3 15.5 11 15.5ZM11 13.8248C12.9668 13.8248 14.7792 13.2956 16.4372 12.2372C18.0956 11.1788 19.3582 9.7664 20.225 8C19.3582 6.2332 18.0998 4.8206 16.4498 3.7622C14.7998 2.7038 12.9832 2.1746 11 2.1746C9.0332 2.1746 7.2208 2.7038 5.5628 3.7622C3.9044 4.8206 2.6418 6.2332 1.775 8C2.6418 9.7664 3.9002 11.1788 5.5502 12.2372C7.2002 13.2956 9.0168 13.8248 11 13.8248Z" fill="#83817D"/>
</svg>
