<svg width="730" height="216" viewBox="0 0 730 216" fill="none" xmlns="http://www.w3.org/2000/svg">
<g clip-path="url(#clip0_659_4253)">
<path d="M75.7888 35.3122C94.2886 35.6542 112.095 42.4131 126.165 54.4336L115.916 75.9654C104.602 68.031 91.1781 63.6557 77.3631 63.3998C55.7413 63.3998 37.4929 77.7329 33.7018 104.889C30.1357 130.213 43.1152 142.714 63.2591 142.746C77.0739 142.746 92.977 137.379 107.756 128.574L114.181 152.258C98.2178 163.731 79.2098 170.207 59.5644 170.866C18.2807 170.866 -4.69046 139.629 0.578437 101.225C2.8815 82.9364 11.8084 66.1273 25.6689 53.9802C39.5295 41.8331 57.3615 35.1912 75.7888 35.3122Z" fill="#18233F"/>
<path d="M181.745 72.75C210.242 72.75 225.535 92.3535 220.716 124.972C220.523 126.419 220.266 127.897 219.977 129.407H157.425C157.393 129.835 157.393 130.265 157.425 130.693C158.356 141.587 165.232 146.761 175.512 146.761C185.384 146.201 195.052 143.723 203.977 139.466L208.411 158.748C196.717 166.858 182.834 171.218 168.605 171.25C138.951 171.25 122.47 149.236 126.293 122.048C127.925 108.475 134.465 95.9692 144.68 86.8879C154.895 77.8065 168.079 72.7778 181.745 72.75ZM159.995 112.182H192.122C192.122 102.734 188.909 96.7563 178.918 96.7563C169.858 96.7563 163.336 102.798 159.995 112.182Z" fill="#18233F"/>
<path d="M267.204 133.522C265.823 143.356 268.81 146.377 274.658 146.377C277.68 146.244 280.653 145.558 283.428 144.352L289.276 164.406C280.964 168.41 271.896 170.6 262.674 170.833C245.229 170.833 232.185 160.453 235.526 136.704L249.438 37.8184H280.633L267.204 133.522Z" fill="#18233F"/>
<path d="M353.049 72.7505C366.831 72.7505 381.963 76.2535 391.345 84.9304L378.686 102.124C373 97.1103 363.265 94.9893 354.366 94.9893C345.467 94.9893 341.515 97.3674 340.744 102.22C340.23 105.434 341.868 106.944 352.759 109.772C370.237 113.918 390.895 119.06 387.232 141.716C383.57 164.373 360.534 171.154 341.226 171.154C324.134 171.154 307.781 165.53 299.974 155.696L312.825 138.888C318.319 146.183 329.82 148.529 339.555 148.529C349.29 148.529 355.812 145.637 356.583 140.045C357.129 135.707 353.37 134.871 343.924 132.3C320.086 126.291 306.849 121.502 309.934 101.867C313.435 79.6278 333.226 72.5898 353.081 72.5898L353.049 72.7505Z" fill="#18233F"/>
<path d="M395.714 168.359L408.79 75.1622H440.018L426.91 168.359H395.714ZM445.897 50.6417C445.122 55.0615 442.804 59.0629 439.357 61.9345C435.91 64.8061 431.556 66.3616 427.07 66.3245C424.622 66.407 422.185 65.9433 419.938 64.9673C417.69 63.9912 415.688 62.5271 414.077 60.6812C412.465 58.8352 411.284 56.6537 410.62 54.2947C409.955 51.9357 409.824 49.4584 410.236 47.0423C411.042 42.677 413.356 38.734 416.774 35.9025C420.192 33.071 424.496 31.5312 428.934 31.5523C431.366 31.4704 433.786 31.9271 436.021 32.89C438.257 33.8529 440.251 35.2981 441.863 37.1221C443.475 38.9461 444.664 41.104 445.344 43.4412C446.025 45.7784 446.181 48.2372 445.801 50.6417H445.897Z" fill="#18233F"/>
<path d="M504.433 72.75C536.175 72.75 554.359 95.985 550.311 123.751C546.584 149.686 524.449 171.153 493.606 171.153C461.479 171.153 443.777 147.886 447.825 120.152C451.712 93.2855 474.041 72.7179 504.433 72.75ZM478.571 123.751C476.804 136.96 483.036 145.251 494.377 145.219C507.228 145.219 517.316 135.064 519.405 120.152C521.204 107.747 515.839 98.6524 503.759 98.6845C490.651 98.4596 480.498 109 478.571 123.591V123.751Z" fill="#18233F"/>
<path d="M643.995 72.4599C645.569 72.4599 646.404 72.4599 647.207 72.4599L639.882 100.837C639.145 100.769 638.403 100.769 637.666 100.837C625.28 101.41 613.374 105.799 603.578 113.402L595.868 168.356H564.64L577.748 75.1594H608.944L607.305 86.8251C617.63 78.0544 630.589 72.9869 644.123 72.4277L643.995 72.4599Z" fill="#18233F"/>
<path d="M664.749 129.665C670.622 129.665 675.383 124.903 675.383 119.028C675.383 113.153 670.622 108.391 664.749 108.391C658.876 108.391 654.115 113.153 654.115 119.028C654.115 124.903 658.876 129.665 664.749 129.665Z" fill="#18233F"/>
<path d="M701.182 129.665C707.055 129.665 711.816 124.903 711.816 119.028C711.816 113.153 707.055 108.391 701.182 108.391C695.309 108.391 690.547 113.153 690.547 119.028C690.547 124.903 695.309 129.665 701.182 129.665Z" fill="#74BFB8"/>
<path d="M670.853 93.8C676.726 93.8 681.487 89.0375 681.487 83.1627C681.487 77.2879 676.726 72.5254 670.853 72.5254C664.98 72.5254 660.219 77.2879 660.219 83.1627C660.219 89.0375 664.98 93.8 670.853 93.8Z" fill="#18233F"/>
<path d="M707.286 93.8C713.159 93.8 717.92 89.0375 717.92 83.1627C717.92 77.2879 713.159 72.5254 707.286 72.5254C701.413 72.5254 696.652 77.2879 696.652 83.1627C696.652 89.0375 701.413 93.8 707.286 93.8Z" fill="#74BFB8"/>
<path d="M604.607 57.9055C610.48 57.9055 615.241 53.143 615.241 47.2682C615.241 41.3934 610.48 36.6309 604.607 36.6309C598.734 36.6309 593.972 41.3934 593.972 47.2682C593.972 53.143 598.734 57.9055 604.607 57.9055Z" fill="#18233F"/>
<path d="M640.718 57.9055C646.591 57.9055 651.352 53.143 651.352 47.2682C651.352 41.3934 646.591 36.6309 640.718 36.6309C634.845 36.6309 630.084 41.3934 630.084 47.2682C630.084 53.143 634.845 57.9055 640.718 57.9055Z" fill="#18233F"/>
<path d="M676.829 57.9055C682.702 57.9055 687.463 53.143 687.463 47.2682C687.463 41.3934 682.702 36.6309 676.829 36.6309C670.956 36.6309 666.195 41.3934 666.195 47.2682C666.195 53.143 670.956 57.9055 676.829 57.9055Z" fill="#18233F"/>
<path d="M713.262 57.9055C719.135 57.9055 723.896 53.143 723.896 47.2682C723.896 41.3934 719.135 36.6309 713.262 36.6309C707.388 36.6309 702.627 41.3934 702.627 47.2682C702.627 53.143 707.388 57.9055 713.262 57.9055Z" fill="#74BFB8"/>
<path d="M610.132 21.4914C616.006 21.4914 620.767 16.729 620.767 10.8541C620.767 4.97929 616.006 0.216797 610.132 0.216797C604.259 0.216797 599.498 4.97929 599.498 10.8541C599.498 16.729 604.259 21.4914 610.132 21.4914Z" fill="#74BFB8"/>
<path d="M646.533 21.4914C652.406 21.4914 657.167 16.729 657.167 10.8541C657.167 4.97929 652.406 0.216797 646.533 0.216797C640.66 0.216797 635.899 4.97929 635.899 10.8541C635.899 16.729 640.66 21.4914 646.533 21.4914Z" fill="#74BFB8"/>
<path d="M682.965 21.4914C688.839 21.4914 693.6 16.729 693.6 10.8541C693.6 4.97929 688.839 0.216797 682.965 0.216797C677.092 0.216797 672.331 4.97929 672.331 10.8541C672.331 16.729 677.092 21.4914 682.965 21.4914Z" fill="#74BFB8"/>
<path d="M719.366 21.4914C725.239 21.4914 730 16.729 730 10.8541C730 4.97929 725.239 0.216797 719.366 0.216797C713.493 0.216797 708.732 4.97929 708.732 10.8541C708.732 16.729 713.493 21.4914 719.366 21.4914Z" fill="#DF7A43"/>
<path d="M311.797 190.501L309.259 208.562H303.508L306.046 190.501H299.621L300.296 185.777H318.929L318.287 190.501H311.797Z" fill="#656567"/>
<path d="M340.101 200.945C340.101 201.202 340.101 201.459 340.101 201.716H329.146C329.162 201.801 329.162 201.889 329.146 201.974C329.147 202.377 329.234 202.776 329.401 203.143C329.569 203.51 329.813 203.837 330.117 204.101C330.422 204.366 330.779 204.563 331.166 204.678C331.552 204.793 331.959 204.824 332.359 204.769C334.085 204.686 335.778 204.26 337.338 203.516L338.109 206.73C336.079 208.162 333.654 208.926 331.17 208.915C330.073 208.991 328.974 208.81 327.96 208.387C326.946 207.963 326.044 207.309 325.327 206.476C324.609 205.643 324.096 204.654 323.828 203.588C323.559 202.522 323.543 201.408 323.781 200.335C324.035 197.96 325.162 195.764 326.943 194.173C328.723 192.582 331.031 191.708 333.419 191.722C338.27 191.818 341.097 195.257 340.101 200.945ZM329.467 198.76H335.122C335.122 197.089 334.575 196.06 332.808 196.06C332.035 196.091 331.293 196.37 330.691 196.857C330.089 197.343 329.66 198.01 329.467 198.76Z" fill="#656567"/>
<path d="M366.446 193.94L364.872 197.346C363.611 196.613 362.185 196.215 360.727 196.189C359.512 196.213 358.352 196.697 357.481 197.544C356.61 198.392 356.093 199.539 356.036 200.753C355.715 203.099 356.711 204.674 359.089 204.674C360.767 204.597 362.404 204.135 363.876 203.324L364.936 207.02C363.031 208.29 360.8 208.982 358.51 209.012C357.371 209.093 356.228 208.907 355.172 208.47C354.116 208.032 353.177 207.354 352.429 206.49C351.681 205.626 351.144 204.6 350.861 203.493C350.578 202.385 350.557 201.227 350.8 200.11C351.127 197.794 352.285 195.675 354.059 194.15C355.832 192.624 358.099 191.796 360.438 191.819C362.618 191.851 364.728 192.596 366.446 193.94Z" fill="#656567"/>
<path d="M393.883 198.086L392.501 208.562H387.04L388.453 198.696C388.678 196.961 387.843 196.35 386.622 196.35C385.153 196.448 383.75 196.998 382.606 197.925L381.128 208.562H375.666L378.879 185.777H384.309L383.152 194.069C384.805 192.682 386.875 191.89 389.031 191.819C389.805 191.792 390.573 191.95 391.274 192.279C391.975 192.608 392.587 193.098 393.061 193.71C393.535 194.322 393.856 195.038 393.999 195.799C394.142 196.56 394.102 197.343 393.883 198.086Z" fill="#656567"/>
<path d="M422.091 198.084L420.613 208.529H415.151L416.565 198.663C416.79 196.895 416.018 196.317 414.83 196.317C413.329 196.431 411.897 196.99 410.717 197.924L409.24 208.529H403.778L406.059 192.268H411.521L411.264 194.035C412.908 192.655 414.966 191.863 417.111 191.785C417.896 191.743 418.68 191.89 419.397 192.214C420.114 192.537 420.743 193.028 421.231 193.645C421.719 194.262 422.051 194.988 422.201 195.76C422.351 196.533 422.313 197.33 422.091 198.084Z" fill="#656567"/>
<path d="M450.588 200.752C450.248 203.108 449.05 205.254 447.223 206.779C445.396 208.304 443.07 209.099 440.692 209.011C439.536 209.113 438.372 208.944 437.293 208.518C436.213 208.092 435.247 207.421 434.471 206.558C433.695 205.694 433.131 204.662 432.822 203.543C432.513 202.424 432.469 201.248 432.693 200.109C433.024 197.754 434.215 195.604 436.036 194.073C437.857 192.542 440.179 191.739 442.556 191.818C443.715 191.723 444.879 191.898 445.96 192.327C447.04 192.757 448.006 193.431 448.784 194.295C449.561 195.16 450.128 196.192 450.441 197.312C450.754 198.432 450.804 199.61 450.588 200.752ZM438.058 200.752C437.737 203.034 438.829 204.512 440.821 204.48C441.962 204.425 443.042 203.947 443.85 203.139C444.658 202.331 445.136 201.251 445.19 200.109C445.512 197.956 444.58 196.349 442.459 196.349C441.31 196.404 440.222 196.885 439.408 197.7C438.594 198.514 438.113 199.602 438.058 200.752Z" fill="#656567"/>
<path d="M466.973 202.489C466.748 204.192 467.262 204.738 468.29 204.738C468.821 204.717 469.344 204.597 469.832 204.385L470.828 207.888C469.386 208.594 467.807 208.978 466.202 209.012C463.149 209.012 460.868 207.213 461.447 203.067L463.888 185.777H469.35L466.973 202.489Z" fill="#656567"/>
<path d="M498.522 200.751C498.182 203.107 496.984 205.254 495.157 206.779C493.33 208.303 491.004 209.098 488.626 209.011C487.472 209.105 486.311 208.932 485.235 208.504C484.158 208.076 483.195 207.405 482.421 206.543C481.646 205.681 481.082 204.652 480.77 203.536C480.459 202.42 480.41 201.247 480.627 200.109C480.959 197.747 482.154 195.593 483.982 194.061C485.809 192.53 488.139 191.73 490.522 191.817C491.678 191.728 492.839 191.906 493.915 192.338C494.991 192.77 495.954 193.444 496.727 194.308C497.501 195.172 498.065 196.203 498.376 197.32C498.688 198.438 498.737 199.612 498.522 200.751ZM485.992 200.751C485.703 203.033 486.795 204.511 488.755 204.479C489.899 204.432 490.983 203.956 491.792 203.147C492.601 202.337 493.077 201.253 493.124 200.109C493.446 197.955 492.514 196.349 490.393 196.349C489.24 196.403 488.149 196.883 487.329 197.696C486.51 198.51 486.022 199.599 485.96 200.751H485.992Z" fill="#656567"/>
<path d="M525.798 207.726C525.594 209.924 524.531 211.953 522.841 213.373C521.151 214.793 518.97 215.489 516.77 215.31C513.85 215.31 510.998 214.437 508.578 212.804L509.252 208.883C511.336 210.115 513.68 210.842 516.095 211.004C516.615 211.048 517.137 210.989 517.634 210.83C518.13 210.671 518.59 210.415 518.987 210.078C519.384 209.74 519.711 209.327 519.948 208.863C520.185 208.399 520.328 207.892 520.368 207.373V206.344C518.897 207.466 517.11 208.096 515.26 208.144C511.083 208.144 508.481 204.448 509.156 199.66C509.306 197.619 510.189 195.702 511.642 194.261C513.094 192.82 515.018 191.952 517.059 191.818C518.004 191.825 518.937 192.022 519.803 192.398C520.67 192.773 521.452 193.319 522.103 194.004L522.328 192.268H527.79L525.798 207.726ZM521.011 202.134L521.653 197.635C520.785 196.809 519.639 196.339 518.441 196.318C516.384 196.318 514.939 197.957 514.585 200.399C514.232 202.841 515.132 203.805 516.834 203.838C518.379 203.758 519.851 203.158 521.011 202.134Z" fill="#656567"/>
<path d="M536.753 208.563L539.035 192.301H544.496L542.183 208.563H536.753ZM545.524 187.995C545.401 188.756 545.009 189.446 544.419 189.942C543.83 190.437 543.082 190.705 542.312 190.695C541.898 190.706 541.486 190.629 541.105 190.468C540.724 190.307 540.381 190.066 540.101 189.762C539.821 189.457 539.61 189.096 539.481 188.702C539.352 188.309 539.31 187.892 539.356 187.481C539.479 186.72 539.871 186.03 540.461 185.534C541.05 185.039 541.798 184.772 542.569 184.781C542.982 184.77 543.394 184.847 543.775 185.008C544.156 185.169 544.499 185.41 544.779 185.714C545.059 186.019 545.271 186.38 545.399 186.774C545.528 187.167 545.57 187.584 545.524 187.995Z" fill="#656567"/>
<path d="M570.391 200.945C570.391 201.202 570.391 201.459 570.391 201.716H559.435C559.435 201.716 559.435 201.877 559.435 201.974C559.436 202.377 559.523 202.776 559.691 203.143C559.858 203.51 560.103 203.837 560.407 204.101C560.711 204.366 561.069 204.563 561.455 204.678C561.842 204.793 562.249 204.824 562.648 204.769C564.375 204.686 566.067 204.26 567.628 203.516L568.399 206.73C566.369 208.162 563.943 208.926 561.459 208.915C560.363 208.991 559.264 208.81 558.249 208.387C557.235 207.963 556.333 207.309 555.616 206.476C554.899 205.643 554.385 204.654 554.117 203.588C553.849 202.522 553.833 201.408 554.07 200.335C554.325 197.96 555.452 195.764 557.232 194.173C559.013 192.582 561.321 191.708 563.708 191.722C568.56 191.818 571.226 195.257 570.391 200.945ZM559.757 198.76H565.411C565.411 197.089 564.865 196.06 563.098 196.06C562.325 196.091 561.582 196.37 560.98 196.857C560.379 197.343 559.949 198.01 559.757 198.76Z" fill="#656567"/>
<path d="M595.418 193.972L593.201 196.96C591.972 196.071 590.476 195.629 588.96 195.707C587.386 195.707 586.712 196.125 586.583 196.992C586.455 197.86 586.776 197.796 588.671 198.31C591.723 199.017 595.354 199.917 594.711 203.87C594.069 207.823 590.053 209.012 586.679 209.012C585.352 209.098 584.022 208.902 582.776 208.437C581.53 207.972 580.397 207.247 579.451 206.312L581.7 203.388C582.311 203.995 583.048 204.461 583.858 204.756C584.668 205.05 585.532 205.164 586.39 205.091C588.125 205.091 589.218 204.609 589.346 203.613C589.475 202.616 588.8 202.713 587.129 202.263C582.985 201.202 580.704 200.367 581.186 196.96C581.796 193.072 585.266 191.818 588.736 191.818C591.151 191.701 593.526 192.466 595.418 193.972Z" fill="#656567"/>
</g>
<defs>
<clipPath id="clip0_659_4253">
<rect width="730" height="215.125" fill="white" transform="translate(0 0.216797)"/>
</clipPath>
</defs>
</svg>
